<svg width="32" height="32" viewBox="0 0 32 32" fill="none" xmlns="http://www.w3.org/2000/svg">
<circle cx="16" cy="16" r="16" fill="#EFF0F2" fill-opacity="0.2"/>
<path d="M16 10C12.6916 10 10 12.6916 10 16C10 19.3084 12.6916 22 16 22C19.3084 22 22 19.3084 22 16C22 12.6916 19.3084 10 16 10ZM16.0577 12.7692C16.4685 12.7692 16.87 12.891 17.2116 13.1193C17.5531 13.3475 17.8193 13.6718 17.9765 14.0513C18.1337 14.4309 18.1748 14.8485 18.0947 15.2513C18.0146 15.6542 17.8168 16.0243 17.5263 16.3148C17.2358 16.6052 16.8658 16.803 16.4629 16.8832C16.06 16.9633 15.6424 16.9222 15.2629 16.765C14.8834 16.6078 14.559 16.3416 14.3308 16C14.1026 15.6585 13.9808 15.2569 13.9808 14.8462C13.9808 14.2953 14.1996 13.767 14.5891 13.3775C14.9786 12.988 15.5069 12.7692 16.0577 12.7692ZM16 21.0769C15.2997 21.0772 14.607 20.9323 13.9657 20.6512C13.3243 20.3702 12.7481 19.9592 12.2737 19.4442C12.5287 18.1237 14.819 17.8462 16 17.8462C17.181 17.8462 19.4713 18.1237 19.7263 19.4439C19.2519 19.959 18.6758 20.3701 18.0344 20.6512C17.393 20.9323 16.7003 21.0772 16 21.0769Z" fill="black"/>
</svg>
